<?xml version="1.0" encoding="UTF-8"?>
<!DOCTYPE svg PUBLIC "-//W3C//DTD SVG 1.1//EN" "http://www.w3.org/Graphics/SVG/1.1/DTD/svg11.dtd">
<!-- Creator: CorelDRAW 2018 (64-Bit) -->
<svg xmlns="http://www.w3.org/2000/svg" xml:space="preserve" width="3.93701in" height="0.992394in" version="1.1" style="shape-rendering:geometricPrecision; text-rendering:geometricPrecision; image-rendering:optimizeQuality; fill-rule:evenodd; clip-rule:evenodd"
viewBox="0 0 1075.83 271.18"
 xmlns:xlink="http://www.w3.org/1999/xlink">
 <defs>
  <style type="text/css">
   <![CDATA[
    .fil0 {fill:#3F2F5D}
    .fil1 {fill:#3F2F5D;fill-rule:nonzero}
   ]]>
  </style>
 </defs>
 <g id="Layer_x0020_1">
  <metadata id="CorelCorpID_0Corel-Layer"/>
  <g id="_2298653297552">
   <path class="fil0" d="M147.41 0.52c31.2,2.73 59.01,15.83 80.32,35.6l-9.09 103.93 -0.52 -0.05 -10.4 -46.67 -30.1 -2.63 -14.19 47.04 -0.52 -0.05 -4.05 -65.24 -26.77 -2.34 -2.51 28.68c-0.32,-1.09 -0.75,-2.22 -1.29,-3.38 -2.95,-6.34 -10.52,-10.08 -22.75,-11.12l-42.82 -3.64 -42.58 126.02c-14.77,-23.96 -22.24,-52.7 -19.6,-82.9 6.53,-74.59 72.29,-129.78 146.88,-123.25zm95.27 51.92c20.24,26.05 31.08,59.51 27.98,94.96 -6.53,74.59 -72.29,129.78 -146.88,123.25 -36.17,-3.17 -67.77,-20.26 -89.99,-45.53l26.96 -78.74 15 1.31 -1.37 15.62 2.5 0.22 15.91 1.39 8.57 0.75c12.5,1.09 20.42,-2.66 23.79,-11.25l15.71 1.37 4.4 -50.31 0.21 0.02 7.57 64.69 14.17 1.24 17.43 -62.5 0 0 -6.91 78.99 18.02 1.58 2.5 -28.6 2.8 -32.06 0.23 -0.19 9.48 62 19.69 1.72 12.24 -139.95zm-170.01 43.98l-8.49 35.89 10.83 0.95 -2.34 -36.84zm26.48 2.11l-4.54 51.87c4.03,0.35 7.16,0.17 9.39,-0.54 2.38,-0.84 3.74,-3.1 4.06,-6.78l2.92 -33.33c0.15,-1.67 0.15,-3.15 0.02,-4.46 -0.13,-1.31 -0.58,-2.41 -1.34,-3.32 -0.76,-0.91 -1.89,-1.64 -3.38,-2.19 -1.49,-0.55 -3.49,-0.93 -5.99,-1.15l-1.15 -0.1z"/>
   <path class="fil1" d="M396.91 57l0 2.71 6.97 0 0 12.68c5.15,0.59 7.72,3.82 7.72,9.67 0,3.29 -1.07,5.89 -3.24,7.78 -2.06,1.79 -4.76,2.7 -8.09,2.7 -3.24,0 -6.08,-0.84 -8.52,-2.53 -1.3,-0.89 -2.27,-1.96 -2.93,-3.2 -0.71,-1.35 -1.07,-2.94 -1.07,-4.75 0,-2.66 0.75,-4.87 2.26,-6.6 1.51,-1.75 3.58,-2.76 6.21,-3.06l0 -7.84 -7.31 0 0 -7.54 8.01 0zm3.03 19.35c-1.26,0 -2.21,0.55 -2.85,1.63 -0.7,1.2 -1.05,2.39 -1.05,3.57l0 0.17c0,1.4 0.29,2.62 0.87,3.66 0.72,1.24 1.73,1.85 3.02,1.85 1.25,0 2.18,-0.55 2.78,-1.63 0.61,-1.08 0.92,-2.26 0.92,-3.54l0 -0.12c0,-1.38 -0.26,-2.59 -0.79,-3.63 -0.68,-1.31 -1.65,-1.97 -2.92,-1.97zm34.43 -19.35c3.17,0 5.46,1.13 6.89,3.4 0.59,0.96 0.95,1.75 1.04,2.36l0.17 1.1 0 20.66 -0.34 1.21c-0.62,2.26 -2.2,4.1 -4.73,5.54 -1.46,0.84 -3.42,1.27 -5.88,1.27 -4.28,0 -7.41,-1.35 -9.4,-4.05 -1.07,-1.46 -1.6,-2.78 -1.6,-3.96l0 -8.98 8.52 0 0 9.33c0,0.65 0.24,1.23 0.71,1.73 0.48,0.5 1.05,0.75 1.7,0.75l0.12 0c1.85,0 2.77,-0.83 2.77,-2.48l0 -21.02c0,-0.49 -0.14,-0.87 -0.42,-1.15 -0.32,-0.23 -0.63,-0.35 -0.95,-0.35l-0.19 0c-0.83,0 -1.26,0.5 -1.26,1.5l0 6.51 -7.72 0 0 -5.18 -0.17 -0.59c-0.24,-0.49 -0.6,-0.73 -1.09,-0.73 -0.17,0 -0.31,0.04 -0.42,0.12l-0.34 0.22 -0.12 0.23 -0.22 0.16c-0.21,0.23 -0.5,0.43 -0.87,0.59 -0.45,0.15 -1.1,0.23 -1.95,0.23 -0.86,0 -1.56,-0.13 -2.08,-0.39 -0.18,-0.08 -0.4,-0.19 -0.64,-0.34l-0.45 -0.42 -0.45 -0.39 0 -6.12c0.37,0 0.67,0.04 0.9,0.12l0.87 0.29 0.93 0.29c0.24,0.08 0.55,0.12 0.92,0.12 0.49,0 0.95,-0.08 1.38,-0.24l3.8 -0.97 1.09 0c1.51,-0.08 2.52,0.71 3.04,2.34l0.31 -0.34 0.23 -0.28c0.54,-0.67 1.3,-1.21 2.28,-1.59 0.83,-0.32 2.02,-0.48 3.61,-0.48zm20.95 0.29l0.76 -0.06 0.67 0c2.36,0 4.21,0.83 5.54,2.48 1.56,-1.45 3.39,-2.28 5.49,-2.48l0.84 0c2.84,0 5.34,1.01 7.46,3.03 2.13,2.02 3.2,4.44 3.2,7.28l0 4.43 -8.52 0 0 -7.43c0,-1.57 -0.8,-2.36 -2.39,-2.36 -1.67,0 -2.5,0.79 -2.5,2.36l0 5.36 -7.31 0 0 -5.36c0,-1.57 -0.72,-2.36 -2.16,-2.36l-0.12 0c-1.44,0 -2.16,0.79 -2.16,2.36l0 6.63c0,1.46 0.59,2.91 1.79,4.36 0.99,1.2 2.24,2.2 3.73,3 1.27,0.69 2.42,1.04 3.45,1.04l2 0.29 1.9 0.34c3.9,0.71 6.6,1.7 8.14,2.98 1.62,1.37 2.44,4.48 2.44,9.36l-8.41 0 0 -0.98c0,-2.64 -0.61,-4.44 -1.85,-5.41 -1.07,-0.84 -3.01,-1.27 -5.83,-1.27l-15.07 0 0 -5.3 4.08 0 -2.3 -2.42c-0.78,-0.82 -1.39,-1.77 -1.87,-2.85 -0.48,-1.1 -0.72,-2.43 -0.72,-4.03l0 -0.79 0.06 -0.82c0.26,-3.79 1.04,-6.56 2.33,-8.28 1.35,-1.81 3.8,-2.84 7.34,-3.1zm31.17 -0.29l8.87 0 0 4.39c0,1.89 1.34,3.71 4.02,5.45l0.31 0.25 0.28 0.17c0.9,0.55 1.95,1.42 3.15,2.64 0.97,1 1.46,2.35 1.46,4.08l0 7.68c0,3.37 -0.99,5.94 -2.97,7.72 -1.98,1.77 -4.23,2.8 -6.77,3.1l-0.48 0.06 -0.92 0c-2.48,0 -4.9,-0.95 -7.26,-2.84 -2.22,-1.78 -3.32,-4.33 -3.32,-7.65l0 -5.23 8.81 0 0 7.71c0,1.85 0.73,2.85 2.19,3 0.59,0 1.11,-0.25 1.58,-0.75 0.48,-0.49 0.72,-1.25 0.72,-2.26l0 -10.54c0,-1.59 -0.46,-2.89 -1.38,-3.88 -0.59,-0.66 -1.75,-1.48 -3.46,-2.45 -1.22,-0.69 -2.31,-1.45 -3.29,-2.25 -1.03,-0.86 -1.55,-2.21 -1.55,-4.02l0 -4.39zm31.37 0c1.4,0 2.58,0.12 3.54,0.34 1.07,0.24 1.79,0.81 2.19,1.68 0.43,-0.87 1.07,-1.44 1.91,-1.68 0.76,-0.22 2,-0.34 3.74,-0.34 1.55,0 2.73,0.12 3.54,0.35 0.81,0.24 1.53,0.8 2.17,1.67 0.58,-1.01 1.33,-1.6 2.25,-1.79 0.75,-0.14 2,-0.22 3.73,-0.22 3.85,0 6.45,1.61 7.82,4.83 0.47,1.1 0.7,2.15 0.7,3.12l0 8.12 -8.52 0 0 -9.21c0,-1.24 -0.52,-1.86 -1.56,-1.86l-0.12 0c-0.99,0 -1.49,0.62 -1.49,1.86l0 5.3 -7.43 0 0 -5.3c0,-1.24 -0.52,-1.86 -1.55,-1.86l-0.11 0c-1.01,0 -1.52,0.62 -1.52,1.86l0 5.3 -7.2 0 0 -5.3c0,-1.08 -0.54,-1.71 -1.6,-1.86l-0.34 0c-1.16,0 -1.75,0.62 -1.75,1.86l0 6.89c0,3.29 2.18,5.93 6.53,7.91 2.11,0.96 3.98,1.44 5.61,1.44l8.52 0c2.46,0 4.68,0.64 6.69,1.93 2.3,1.47 3.46,3.37 3.46,5.7l0 4.81 -8.52 0 0 -1.68c0,-1.67 -0.74,-2.94 -2.22,-3.82 -1.69,-0.97 -3.35,-1.57 -4.98,-1.8l-2.19 -0.31 -2.03 0 -18.19 0 0 -5.3 4.02 0c-1.97,-0.79 -3.42,-2.37 -4.36,-4.73 -0.1,-0.21 -0.21,-0.59 -0.36,-1.13 -0.15,-0.49 -0.26,-0.98 -0.34,-1.47 -0.04,-0.22 -0.06,-0.47 -0.06,-0.76l0 -6.57 0.12 -0.22 0 -0.2 0.42 -1.5c0.22,-0.79 0.43,-1.38 0.61,-1.78 1.37,-2.85 4.31,-4.28 8.83,-4.28zm50.02 0c5.35,0 8.01,1.86 8.01,5.6 0,1.42 -0.33,2.46 -0.98,3.09 -0.59,0.57 -1.38,1.16 -2.41,1.8l-0.34 0.17 -0.36 0.22c0.52,0 1.07,0.08 1.62,0.23l1.6 0.42c1.59,0.41 3.15,1.14 4.68,2.19 1.59,1.1 2.49,2.45 2.67,4.02l0.28 2.3c0.1,0.77 0.14,1.54 0.14,2.3 0,3.08 -0.81,5.7 -2.42,7.87 -2.05,3.54 -6.27,5.32 -12.61,5.32 -4.42,0 -7.78,-0.61 -10.07,-1.85 -2.86,-1.57 -4.64,-4.34 -5.31,-8.3l0 -6.38c0.21,-1.27 0.48,-2.28 0.82,-3l1.09 -2.33 0.06 -0.2 0.06 -0.11 7.2 0 -0.34 1.64 -0.25 1.38 -0.12 1.72 0 7.78c0,1.5 0.72,2.67 2.16,3.51 1.22,0.73 2.64,1.09 4.25,1.09 1.66,0 3.11,-0.35 4.33,-1.04 1.48,-0.85 2.22,-2.04 2.22,-3.57l0 -7.78c0,-2.22 -0.94,-3.8 -2.82,-4.74l0 4.74 -7.66 -0.01c0,-2.76 0.35,-4.52 1.04,-5.29l0.98 -1.09c-4.34,-1.3 -6.51,-3.1 -6.51,-5.42l0 -0.34c0,-0.15 0,-0.27 0,-0.34l0 -0.65c0,-2.62 2.11,-4.21 6.33,-4.77l1.27 -0.17 1.38 0zm1.16 5.59c0,-0.43 -0.15,-0.75 -0.46,-0.96 -0.31,-0.2 -0.69,-0.31 -1.14,-0.31l-0.16 0c-1.02,0 -1.52,0.42 -1.52,1.27l0 2.36c0,0.61 0.54,0.93 1.62,0.93l0.12 0c0.37,0 0.74,-0.08 1.09,-0.23 0.3,-0.16 0.45,-0.4 0.45,-0.7l0 -2.36zm46.32 -5.59l0 3.57c0,1.68 -1.19,3.17 -3.57,4.44l-1.33 0.71 -1.15 0.5c-0.61,0.29 -1.56,0.67 -2.81,1.15 -0.43,0.13 -1.64,0.56 -3.63,1.27 -1.08,0.37 -2.62,0.96 -4.61,1.75 -1.37,0.61 -2.31,1.28 -2.81,1.99 0.89,-0.41 1.85,-0.62 2.86,-0.62 2.44,0 3.92,1 4.44,3 0.59,-1.22 1.39,-2.06 2.42,-2.53 1.03,-0.47 2.66,-0.7 4.9,-0.7 2.82,0 5.1,0.61 6.79,1.85 1.91,1.42 2.87,3.49 2.87,6.21l0 9.79c0,0.39 -0.09,0.86 -0.25,1.4 -0.06,0.17 -0.18,0.44 -0.36,0.81 -0.19,0.36 -0.38,0.69 -0.59,0.97l-8.01 0c0.08,-0.21 0.2,-0.59 0.39,-1.12 0.09,-0.29 0.17,-0.57 0.25,-0.84l0.16 -1.15 0 -9.85c0,-1.76 -0.73,-2.64 -2.19,-2.64l-0.12 0c-0.67,0 -1.21,0.27 -1.6,0.81 -0.39,0.53 -0.59,1.14 -0.59,1.84l0 4.95 -8.52 0 0 -4.95c0,-0.79 -0.18,-1.41 -0.56,-1.86 -0.44,-0.45 -0.9,-0.67 -1.36,-0.67l-0.31 0c-1.24,0 -1.86,0.84 -1.86,2.52l0 9.91c0.23,1.24 0.48,2.26 0.75,3.06l-8.41 0 -0.12 -0.36 -0.22 -0.34 -0.06 -0.23 -0.06 -0.11c-0.55,-1.09 -0.82,-2.21 -0.82,-3.35l0 -10.23c0,-2.77 0.95,-5.19 2.84,-7.26 2.46,-2.66 5.36,-4.6 8.69,-5.82l3.15 -1.09c4.58,-1.14 6.86,-2.72 6.86,-4.72l0 -2.03 8.52 0zm27.45 0c3.17,0 5.46,1.13 6.89,3.4 0.59,0.96 0.95,1.75 1.04,2.36l0.17 1.1 0 20.66 -0.34 1.21c-0.62,2.26 -2.2,4.1 -4.73,5.54 -1.46,0.84 -3.42,1.27 -5.87,1.27 -4.28,0 -7.41,-1.35 -9.4,-4.05 -1.07,-1.46 -1.6,-2.78 -1.6,-3.96l0 -8.98 8.52 0 0 9.33c0,0.65 0.24,1.23 0.71,1.73 0.48,0.5 1.05,0.75 1.7,0.75l0.12 0c1.85,0 2.77,-0.83 2.77,-2.48l0 -21.02c0,-0.49 -0.14,-0.87 -0.42,-1.15 -0.32,-0.23 -0.63,-0.35 -0.95,-0.35l-0.19 0c-0.83,0 -1.26,0.5 -1.26,1.5l0 6.51 -7.72 0 0 -5.18 -0.17 -0.59c-0.24,-0.49 -0.6,-0.73 -1.09,-0.73 -0.17,0 -0.31,0.04 -0.42,0.12l-0.34 0.22 -0.12 0.23 -0.22 0.16c-0.21,0.23 -0.5,0.43 -0.87,0.59 -0.45,0.15 -1.1,0.23 -1.95,0.23 -0.86,0 -1.55,-0.13 -2.08,-0.39 -0.18,-0.08 -0.4,-0.19 -0.64,-0.34l-0.45 -0.42 -0.45 -0.39 0 -6.12c0.37,0 0.67,0.04 0.9,0.12l0.87 0.29 0.93 0.29c0.24,0.08 0.55,0.12 0.92,0.12 0.49,0 0.95,-0.08 1.38,-0.24l3.8 -0.97 1.09 0c1.51,-0.08 2.52,0.71 3.04,2.34l0.31 -0.34 0.23 -0.28c0.54,-0.67 1.31,-1.21 2.28,-1.59 0.83,-0.32 2.02,-0.48 3.61,-0.48zm21.25 0c1.4,0 2.58,0.12 3.54,0.34 1.07,0.24 1.79,0.81 2.19,1.68 0.43,-0.87 1.07,-1.44 1.91,-1.68 0.76,-0.22 2,-0.34 3.74,-0.34 1.55,0 2.73,0.12 3.54,0.35 0.81,0.24 1.53,0.8 2.17,1.67 0.58,-1.01 1.33,-1.6 2.25,-1.79 0.75,-0.14 2,-0.22 3.73,-0.22 3.85,0 6.45,1.61 7.82,4.83 0.47,1.1 0.7,2.15 0.7,3.12l0 8.12 -8.52 0 0 -9.21c0,-1.24 -0.52,-1.86 -1.56,-1.86l-0.12 0c-0.99,0 -1.49,0.62 -1.49,1.86l0 5.3 -7.43 0 0 -5.3c0,-1.24 -0.52,-1.86 -1.55,-1.86l-0.11 0c-1.01,0 -1.52,0.62 -1.52,1.86l0 5.3 -7.2 0 0 -5.3c0,-1.08 -0.54,-1.71 -1.6,-1.86l-0.34 0c-1.16,0 -1.75,0.62 -1.75,1.86l0 6.89c0,3.29 2.18,5.93 6.53,7.91 2.11,0.96 3.98,1.44 5.61,1.44l8.52 0c2.46,0 4.68,0.64 6.69,1.93 2.3,1.47 3.46,3.37 3.46,5.7l0 4.81 -8.52 0 0 -1.68c0,-1.67 -0.74,-2.94 -2.22,-3.82 -1.69,-0.97 -3.35,-1.57 -4.98,-1.8l-2.19 -0.31 -2.03 0 -18.19 0 0 -5.3 4.02 0c-1.97,-0.79 -3.42,-2.37 -4.36,-4.73 -0.1,-0.21 -0.21,-0.59 -0.36,-1.13 -0.15,-0.49 -0.26,-0.98 -0.34,-1.47 -0.04,-0.22 -0.06,-0.47 -0.06,-0.76l0 -6.57 0.12 -0.22 0 -0.2 0.42 -1.5c0.22,-0.79 0.43,-1.38 0.61,-1.78 1.37,-2.85 4.31,-4.28 8.83,-4.28zm57.23 9.68l-0.12 21.47 -0.39 2.42 -0.16 0.76 -0.2 0.73c-0.06,0.23 -0.13,0.38 -0.22,0.48l-8.48 0c0.6,-0.6 0.95,-1.51 1.05,-2.73l0.12 -1.43 0 -23.84c0,-0.88 -0.26,-1.54 -0.79,-2.01 -0.52,-0.46 -1.11,-0.69 -1.78,-0.69 -1.78,0 -2.68,0.9 -2.68,2.7l0 23.73c0.02,0.51 0.11,0.98 0.25,1.43 0,0.25 0.03,0.47 0.1,0.68l0.18 0.83c0.09,0.36 0.17,0.64 0.28,0.84l0.22 0.31c0.04,0.08 0.09,0.13 0.12,0.17l-8.07 0c-0.04,-0.06 -0.07,-0.1 -0.09,-0.12 -0.08,-0.09 -0.13,-0.21 -0.19,-0.36l-0.48 -1.15 -0.17 -0.61 -0.22 -0.59 -0.28 -1.43c-0.12,-0.59 -0.17,-0.93 -0.17,-1.05l0 -20.54c0,-0.49 0.08,-1.06 0.22,-1.69 0.15,-0.64 0.36,-1.25 0.62,-1.83 1.91,-4.1 5.43,-6.15 10.55,-6.15 2.29,0 4.37,0.62 6.24,1.88 1.86,1.26 3.21,2.96 4.03,5.09l0.39 1.38c0.08,0.26 0.12,0.7 0.12,1.32zm25.7 -9.68c5.94,0 9.44,2.4 10.49,7.2l0 19.93c0,0.43 -0.04,0.82 -0.12,1.15l-0.28 1.15c-1.59,4.07 -4.8,6.1 -9.62,6.1 -3.35,0 -6.06,-0.9 -8.12,-2.7 -2.16,-1.88 -3.24,-4.47 -3.24,-7.79 0,-2.85 0.68,-5.29 2.05,-7.3 1.57,-2.31 3.73,-3.47 6.47,-3.47 0.9,0 1.7,0.11 2.39,0.33 0.69,0.21 1.47,0.59 2.33,1.11l0 -8.52c0,-1.41 -0.65,-2.18 -1.95,-2.3l-0.19 0c-1.26,0 -1.89,0.77 -1.89,2.3l0 4.16 -8.12 0 0 -3.4c0.92,-5.3 4.18,-7.95 9.78,-7.95zm2.37 22.57c0,-0.79 -0.22,-1.4 -0.67,-1.85 -0.53,-0.37 -1.09,-0.57 -1.69,-0.57l-0.17 0c-0.67,0 -1.23,0.24 -1.66,0.71 -0.43,0.46 -0.64,1.04 -0.64,1.71l0 5.77c0,0.71 0.25,1.29 0.76,1.72 0.51,0.43 1.05,0.64 1.6,0.64l0.12 0c1.57,0 2.36,-0.79 2.36,-2.36l0 -5.77zm22.3 -22.57c1.1,0 2.18,0.17 3.24,0.53 1.34,0.47 2.17,1.11 2.47,1.94 1.07,-1.64 3.37,-2.47 6.89,-2.47 3.17,0 5.67,1.12 7.54,3.37 1.7,2.08 2.55,4.74 2.55,7.99l0 21.06c0,1.01 -0.38,2 -1.14,2.95l-0.12 0.17 -8.06 0c0.14,-0.26 0.3,-0.59 0.44,-0.98l0.31 -0.82 0.16 -1.16 0 -25.04c0,-0.71 -0.18,-1.32 -0.56,-1.85 -0.43,-0.57 -1,-0.84 -1.69,-0.84l-0.17 0c-1.46,0 -2.19,0.9 -2.19,2.7l0 10.54 -7.66 0 0 -10.54c0,-0.84 -0.23,-1.51 -0.68,-2 -0.54,-0.47 -1.1,-0.7 -1.71,-0.7l-0.17 0c-0.53,0 -1.06,0.23 -1.57,0.7 -0.51,0.47 -0.77,1.13 -0.77,2l0 23.61c0,0.65 0.07,1.21 0.2,1.66l0.36 1.15 0.12 0.14 0.06 0.22 0.23 0.51 0.18 0.7 -7.93 0c-0.27,-0.36 -0.48,-0.7 -0.65,-1.04l-0.59 -1.15 -0.34 -1.16c-0.12,-0.37 -0.17,-0.72 -0.17,-1.04l0 -20.27c0,-3.25 1.1,-5.9 3.29,-7.93 2.13,-1.97 4.84,-2.95 8.12,-2.95zm36.5 0c5.94,0 9.45,2.4 10.49,7.2l0 19.93c0,0.43 -0.04,0.82 -0.12,1.15l-0.28 1.15c-1.59,4.07 -4.8,6.1 -9.62,6.1 -3.35,0 -6.06,-0.9 -8.12,-2.7 -2.16,-1.88 -3.24,-4.47 -3.24,-7.79 0,-2.85 0.68,-5.29 2.05,-7.3 1.58,-2.31 3.73,-3.47 6.47,-3.47 0.9,0 1.7,0.11 2.39,0.33 0.69,0.21 1.47,0.59 2.33,1.11l0 -8.52c0,-1.41 -0.65,-2.18 -1.95,-2.3l-0.19 0c-1.26,0 -1.89,0.77 -1.89,2.3l0 4.16 -8.12 0 0 -3.4c0.92,-5.3 4.18,-7.95 9.78,-7.95zm2.37 22.57c0,-0.79 -0.22,-1.4 -0.67,-1.85 -0.53,-0.37 -1.09,-0.57 -1.69,-0.57l-0.17 0c-0.67,0 -1.23,0.24 -1.66,0.71 -0.43,0.46 -0.64,1.04 -0.64,1.71l0 5.77c0,0.71 0.25,1.29 0.76,1.72 0.51,0.43 1.05,0.64 1.6,0.64l0.12 0c1.57,0 2.36,-0.79 2.36,-2.36l0 -5.77zm20.16 -22.57l0 28.34c0,0.73 0.26,1.31 0.78,1.73 0.51,0.42 1.07,0.63 1.64,0.63 1.69,0 2.53,-0.79 2.53,-2.36l0 -6.98c0,-0.89 -0.08,-1.74 -0.23,-2.52 -0.13,-0.51 -0.31,-1.24 -0.54,-2.2l-0.17 -0.7 -0.22 -0.57 8.47 0c0.19,0.6 0.4,1.57 0.65,2.93l0.28 3.29c0,0.22 0.02,0.52 0.05,0.87l0 0.92c0,1.11 -0.02,1.9 -0.06,2.36l-0.16 2.11c-1,5.12 -4.47,7.68 -10.43,7.68 -3.46,0 -6.06,-0.77 -7.82,-2.3 -1.69,-1.48 -2.88,-3.94 -3.57,-7.37l0 -25.86 8.81 0zm20.46 0l8.87 0 0 4.39c0,1.89 1.34,3.71 4.02,5.45l0.31 0.25 0.28 0.17c0.9,0.55 1.95,1.42 3.15,2.64 0.97,1 1.46,2.35 1.46,4.08l0 7.68c0,3.37 -0.99,5.94 -2.97,7.72 -1.98,1.77 -4.23,2.8 -6.77,3.1l-0.48 0.06 -0.92 0c-2.48,0 -4.9,-0.95 -7.26,-2.84 -2.22,-1.78 -3.32,-4.33 -3.32,-7.65l0 -5.23 8.81 0 0 7.71c0,1.85 0.73,2.85 2.19,3 0.59,0 1.11,-0.25 1.58,-0.75 0.48,-0.49 0.72,-1.25 0.72,-2.26l0 -10.54c0,-1.59 -0.46,-2.89 -1.38,-3.88 -0.59,-0.66 -1.75,-1.48 -3.46,-2.45 -1.22,-0.69 -2.31,-1.45 -3.29,-2.25 -1.03,-0.86 -1.55,-2.21 -1.55,-4.02l0 -4.39zm29.8 0l0 15.71 4.84 -5.17 6.86 0 -4.84 5.17c2.32,0 4.01,0.81 5.06,2.42 0.96,1.47 1.44,3.52 1.44,6.16 0,3.3 -1,6 -2.99,8.1 -2,2.1 -4.64,3.15 -7.93,3.15 -2.57,0 -4.87,-0.61 -6.88,-1.85 -2.29,-1.41 -3.62,-3.31 -3.97,-5.71l0 -0.39 0 -0.45 0 -27.13 8.41 0zm4.49 22.17c0,-0.75 -0.23,-1.34 -0.7,-1.79 -0.47,-0.37 -0.97,-0.57 -1.49,-0.57l-0.12 0c-1.46,0 -2.19,0.79 -2.19,2.36l0 6.16c0,0.63 0.21,1.19 0.63,1.66 0.42,0.47 0.94,0.7 1.55,0.7l0.12 0c1.46,0 2.19,-0.79 2.19,-2.36l0 -6.16zm31.43 -22.17c3.17,0 5.46,1.13 6.89,3.4 0.59,0.96 0.95,1.75 1.04,2.36l0.17 1.1 0 20.66 -0.34 1.21c-0.62,2.26 -2.2,4.1 -4.73,5.54 -1.46,0.84 -3.42,1.27 -5.87,1.27 -4.28,0 -7.41,-1.35 -9.4,-4.05 -1.07,-1.46 -1.6,-2.78 -1.6,-3.96l0 -8.98 8.52 0 0 9.33c0,0.65 0.24,1.23 0.71,1.73 0.48,0.5 1.05,0.75 1.7,0.75l0.12 0c1.85,0 2.77,-0.83 2.77,-2.48l0 -21.02c0,-0.49 -0.14,-0.87 -0.42,-1.15 -0.32,-0.23 -0.63,-0.35 -0.95,-0.35l-0.19 0c-0.83,0 -1.26,0.5 -1.26,1.5l0 6.51 -7.72 0 0 -5.18 -0.17 -0.59c-0.24,-0.49 -0.6,-0.73 -1.09,-0.73 -0.17,0 -0.31,0.04 -0.42,0.12l-0.34 0.22 -0.12 0.23 -0.22 0.16c-0.21,0.23 -0.5,0.43 -0.87,0.59 -0.45,0.15 -1.1,0.23 -1.95,0.23 -0.86,0 -1.55,-0.13 -2.08,-0.39 -0.18,-0.08 -0.4,-0.19 -0.64,-0.34l-0.45 -0.42 -0.45 -0.39 0 -6.12c0.37,0 0.67,0.04 0.9,0.12l0.87 0.29 0.93 0.29c0.24,0.08 0.55,0.12 0.92,0.12 0.49,0 0.95,-0.08 1.38,-0.24l3.8 -0.97 1.1 0c1.51,-0.08 2.51,0.71 3.04,2.34l0.31 -0.34 0.23 -0.28c0.54,-0.67 1.3,-1.21 2.27,-1.59 0.83,-0.32 2.03,-0.48 3.61,-0.48zm41.39 0l0 3.57c0,1.68 -1.19,3.17 -3.57,4.44l-1.32 0.71 -1.15 0.5c-0.61,0.29 -1.55,0.67 -2.81,1.15 -0.43,0.13 -1.64,0.56 -3.63,1.27 -1.08,0.37 -2.62,0.96 -4.61,1.75 -1.37,0.61 -2.31,1.28 -2.81,1.99 0.89,-0.41 1.85,-0.62 2.86,-0.62 2.44,0 3.92,1 4.44,3 0.59,-1.22 1.39,-2.06 2.42,-2.53 1.03,-0.47 2.66,-0.7 4.9,-0.7 2.82,0 5.1,0.61 6.8,1.85 1.91,1.42 2.87,3.49 2.87,6.21l0 9.79c0,0.39 -0.09,0.86 -0.25,1.4 -0.06,0.17 -0.18,0.44 -0.36,0.81 -0.19,0.36 -0.38,0.69 -0.59,0.97l-8.01 0c0.08,-0.21 0.2,-0.59 0.39,-1.12 0.09,-0.29 0.17,-0.57 0.25,-0.84l0.16 -1.15 0 -9.85c0,-1.76 -0.73,-2.64 -2.19,-2.64l-0.12 0c-0.67,0 -1.21,0.27 -1.6,0.81 -0.39,0.53 -0.59,1.14 -0.59,1.84l0 4.95 -8.52 0 0 -4.95c0,-0.79 -0.18,-1.41 -0.56,-1.86 -0.44,-0.45 -0.9,-0.67 -1.36,-0.67l-0.31 0c-1.24,0 -1.86,0.84 -1.86,2.52l0 9.91c0.23,1.24 0.48,2.26 0.75,3.06l-8.41 0 -0.12 -0.36 -0.22 -0.34 -0.06 -0.23 -0.06 -0.11c-0.55,-1.09 -0.82,-2.21 -0.82,-3.35l0 -10.23c0,-2.77 0.95,-5.19 2.84,-7.26 2.46,-2.66 5.36,-4.6 8.69,-5.82l3.15 -1.09c4.58,-1.14 6.86,-2.72 6.86,-4.72l0 -2.03 8.52 0zm28.93 10.17l0 15.74c0,2.93 -1.05,5.29 -3.15,7.09 -1.99,1.69 -4.47,2.53 -7.45,2.53l-0.17 0c-2.96,0 -5.43,-0.85 -7.42,-2.56 -2.12,-1.79 -3.18,-4.15 -3.18,-7.06l0 -6.05 8.41 0 0 8.01c0,0.72 0.21,1.36 0.64,1.9 0.43,0.54 1.01,0.81 1.72,0.81l0.12 0c1.57,0 2.36,-0.9 2.36,-2.73l0 -19.91c0,-0.92 -0.2,-1.59 -0.6,-2.02 -0.4,-0.41 -0.92,-0.62 -1.55,-0.62l-0.16 0c-0.64,0 -1.14,0.27 -1.52,0.83 -0.36,0.55 -0.55,1.15 -0.55,1.81l0 4.55 -8.58 0 0 -2.36c0,-2.96 1.03,-5.4 3.09,-7.32 2.02,-1.87 4.53,-2.81 7.51,-2.81 2.81,0 5.26,1 7.35,2.99 2.08,1.99 3.13,4.39 3.13,7.18zm12.15 -10.17l0 2.71 6.97 0 0 12.68c5.15,0.59 7.72,3.82 7.72,9.67 0,3.29 -1.08,5.89 -3.24,7.78 -2.06,1.79 -4.76,2.7 -8.09,2.7 -3.24,0 -6.09,-0.84 -8.52,-2.53 -1.3,-0.89 -2.26,-1.96 -2.93,-3.2 -0.71,-1.35 -1.07,-2.94 -1.07,-4.75 0,-2.66 0.75,-4.87 2.25,-6.6 1.51,-1.75 3.58,-2.76 6.21,-3.06l0 -7.84 -7.31 0 0 -7.54 8.01 0zm3.03 19.35c-1.26,0 -2.21,0.55 -2.85,1.63 -0.7,1.2 -1.05,2.39 -1.05,3.57l0 0.17c0,1.4 0.29,2.62 0.87,3.66 0.72,1.24 1.73,1.85 3.02,1.85 1.25,0 2.18,-0.55 2.78,-1.63 0.61,-1.08 0.92,-2.26 0.92,-3.54l0 -0.12c0,-1.38 -0.26,-2.59 -0.79,-3.63 -0.68,-1.31 -1.65,-1.97 -2.92,-1.97zm18.8 -19.35l8.87 0 0 4.39c0,1.89 1.34,3.71 4.02,5.45l0.31 0.25 0.28 0.17c0.9,0.55 1.95,1.42 3.15,2.64 0.97,1 1.46,2.35 1.46,4.08l0 7.68c0,3.37 -0.99,5.94 -2.97,7.72 -1.98,1.77 -4.23,2.8 -6.77,3.1l-0.48 0.06 -0.92 0c-2.48,0 -4.9,-0.95 -7.26,-2.84 -2.22,-1.78 -3.32,-4.33 -3.32,-7.65l0 -5.23 8.81 0 0 7.71c0,1.85 0.73,2.85 2.19,3 0.59,0 1.11,-0.25 1.58,-0.75 0.48,-0.49 0.72,-1.25 0.72,-2.26l0 -10.54c0,-1.59 -0.46,-2.89 -1.38,-3.88 -0.59,-0.66 -1.75,-1.48 -3.46,-2.45 -1.22,-0.69 -2.31,-1.45 -3.29,-2.25 -1.03,-0.86 -1.55,-2.21 -1.55,-4.02l0 -4.39z"/>
   <polygon class="fil0" points="351.18,123.71 1075.83,123.71 1075.83,132.2 351.18,132.2 "/>
   <path class="fil1" d="M399.58 212.96l-11.83 0 10.93 -49.75 14.07 0 10.81 49.75 -11.83 0 -1.54 -9.59 -9.21 0 -1.41 9.59zm6.01 -40.67l-3.26 22.32 6.65 0 -3.39 -22.32zm41.31 25.9l0 -4.67 11.64 0 0 7.35c0,4.31 -1.66,7.67 -4.99,10.1 -2.98,2.13 -6.69,3.2 -11.13,3.2 -5.37,0 -9.29,-1.21 -11.77,-3.64 -2.56,-2.43 -3.84,-6.33 -3.84,-11.7l0 -21.49c0,-10.23 5.12,-15.35 15.35,-15.35l0.26 0c10.66,0 15.99,4.8 15.99,14.39l0 4.22 -11.77 0 0 -3.26c0,-4.26 -1.26,-6.39 -3.77,-6.39l-0.13 0c-1.41,0 -2.47,0.37 -3.2,1.12 -0.72,0.75 -1.09,1.97 -1.09,3.68l0 25.13c0,2.9 1.32,4.35 3.96,4.35l0.32 0c2.47,0 3.82,-1.64 4.03,-4.92l0.13 -2.11zm36.96 0l0 -4.67 11.64 0 0 7.35c0,4.31 -1.66,7.67 -4.99,10.1 -2.98,2.13 -6.69,3.2 -11.13,3.2 -5.37,0 -9.29,-1.21 -11.77,-3.64 -2.56,-2.43 -3.84,-6.33 -3.84,-11.7l0 -21.49c0,-10.23 5.12,-15.35 15.35,-15.35l0.26 0c10.66,0 15.99,4.8 15.99,14.39l0 4.22 -11.77 0 0 -3.26c0,-4.26 -1.26,-6.39 -3.77,-6.39l-0.13 0c-1.41,0 -2.47,0.37 -3.2,1.12 -0.73,0.75 -1.09,1.97 -1.09,3.68l0 25.13c0,2.9 1.32,4.35 3.97,4.35l0.32 0c2.47,0 3.81,-1.64 4.03,-4.92l0.13 -2.11zm16.88 0.51l0 -21.87c0,-9.89 5.35,-14.84 16.05,-14.84l0.51 0c4.77,0 8.48,1.26 11.13,3.77 2.69,2.64 4.03,6.33 4.03,11.06l0 21.87c0,5.16 -1.3,9.06 -3.9,11.7 -2.39,2.51 -6.46,3.77 -12.21,3.77 -5.54,0 -9.46,-1.36 -11.77,-4.09 -2.56,-2.94 -3.84,-6.74 -3.84,-11.38zm11.77 -22.96l-0.13 1.09 0 22c0,1.53 0.34,2.98 1.02,4.35 0.68,1.36 1.77,2.05 3.26,2.05 2.69,0 4.03,-2.3 4.03,-6.91l0 -22.57c0,-3.2 -1.26,-4.8 -3.77,-4.8l-0.45 0c-2.26,0 -3.58,1.6 -3.96,4.8zm25.32 24.04l0 -36.58 11.64 0 0 38.05c0,2.64 1.43,3.96 4.29,3.96 2.52,0 3.77,-1.49 3.77,-4.48l0 -37.54 11.77 0 0 36.32c0,9.76 -5.01,14.64 -15.03,14.64l-0.51 0c-10.62,0 -15.92,-4.8 -15.92,-14.39zm47 13.17l-9.91 0 0 -49.75 12.09 0 8.83 27.88 0.32 0 0 -27.88 9.98 0 0 49.75 -12.09 0 -9.08 -27.88 -0.13 0.13 0 27.75zm46.49 0l-11.7 0 0 -39.84 -9.21 0 0 -9.91 30.37 0 0 9.91 -9.46 0 0 39.84zm26.09 0l-11.83 0 0 -49.88 11.83 0 0 49.88zm15.92 0l-9.91 0 0 -49.75 12.09 0 8.83 27.88 0.32 0 0 -27.88 9.98 0 0 49.75 -12.09 0 -9.08 -27.88 -0.13 0.13 0 27.75zm50.26 0.13l-0.7 -4.35 -0.13 0c-1.83,3.62 -5.18,5.44 -10.04,5.44l-2.3 0c-1.71,0 -3.29,-0.51 -4.76,-1.53 -1.47,-1.02 -2.63,-2.22 -3.48,-3.58 -1.66,-2.73 -2.49,-5.97 -2.49,-9.72l-0.13 -22c-0.08,-10.23 5.16,-15.35 15.73,-15.35l0.38 0c6.61,0 11.11,1.98 13.49,5.95 1.36,2.35 2.05,4.99 2.05,7.93l0 4.35 -11.7 0 0 -4.48c0,-3.24 -1.34,-4.84 -4.03,-4.8 -2.34,0.08 -3.67,1.17 -3.96,3.26l-0.26 1.54 0 25.26c0,1.11 0.39,2.1 1.18,2.97 0.79,0.87 1.74,1.33 2.85,1.37 1.96,0.04 3.21,-0.49 3.74,-1.6 0.53,-1.11 0.8,-2.71 0.8,-4.8l0 -3.97 -4.22 0 0 -8.95 15.86 0 0 27.05 -7.87 0zm56.72 -11.13l0 -5.56 10.74 0 0 3.9c0,3.28 1.41,4.92 4.22,4.92l0.51 0c2.64,0 3.97,-1.68 3.97,-5.05 0,-2.17 -2.11,-4.6 -6.33,-7.29 -4.86,-3.11 -7.89,-5.29 -9.08,-6.52 -1.41,-1.49 -2.33,-3.14 -2.78,-4.96 -0.45,-1.81 -0.67,-3.98 -0.67,-6.49 0.9,-8.61 5.65,-12.92 14.26,-12.92l0.64 0c2.52,0 4.82,0.49 6.91,1.47 5.12,2.39 7.67,6.93 7.67,13.62l0 1.02 -10.81 0 0 -0.9c0,-4.18 -1.39,-6.27 -4.16,-6.27 -2.22,0 -3.45,1.26 -3.71,3.77l0 0.58c0,1.45 0.49,2.6 1.47,3.45 0.43,0.34 1.29,0.93 2.59,1.76 1.3,0.83 2.71,1.76 4.22,2.78 1.51,1.02 2.97,2.04 4.38,3.04 1.41,1 2.43,1.84 3.07,2.53 1.19,1.24 1.99,2.71 2.4,4.41 0.4,1.71 0.61,3.56 0.61,5.56 0,4.99 -1.19,8.68 -3.58,11.06 -2.81,2.86 -6.72,4.28 -11.7,4.28 -4.05,0 -7.46,-1 -10.23,-3 -3.07,-2.22 -4.6,-5.29 -4.6,-9.21zm62.8 11l-27.56 0 0 -49.88 26.67 0 0 9.91 -15.03 0 0 9.27 14.64 0 0 9.91 -14.64 0 0 10.81 15.92 0 0 9.98zm16.88 0l-11.64 0 0 -49.75 17.46 0c9.34,0 14.01,4.26 14.01,12.79l0 0.38c0,2.98 -0.38,5.35 -1.15,7.1 -0.94,2.05 -2.62,3.67 -5.05,4.86 0.43,-0.43 0.97,-0.42 1.63,0.03 0.66,0.45 1.3,1.08 1.92,1.89 0.62,0.81 1.15,1.66 1.6,2.56 0.45,0.9 0.67,1.58 0.67,2.05l0.51 11.7c0.21,3.5 0.72,5.41 1.53,5.76l0 0.64 -12.66 0c-0.51,-0.94 -0.77,-2.88 -0.77,-5.82l0 -5.63c0,-5.41 -1.36,-8.12 -4.09,-8.12l-3.97 0 0 19.57zm0 -40.8l0 12.15 3.97 0c2.9,0 4.35,-2.24 4.35,-6.71 0,-2.35 -0.73,-3.84 -2.17,-4.48 -1.45,-0.64 -3.5,-0.96 -6.14,-0.96zm47.83 40.8l-13.69 0 -10.93 -49.75 11.7 0 6.01 34.98 0.19 0 5.95 -34.98 11.64 0 -10.87 49.75zm26.92 0l-11.83 0 0 -49.88 11.83 0 0 49.88zm25.83 -14.77l0 -4.67 11.64 0 0 7.35c0,4.31 -1.66,7.67 -4.99,10.1 -2.98,2.13 -6.69,3.2 -11.13,3.2 -5.37,0 -9.29,-1.21 -11.77,-3.64 -2.56,-2.43 -3.84,-6.33 -3.84,-11.7l0 -21.49c0,-10.23 5.12,-15.35 15.35,-15.35l0.26 0c10.66,0 15.99,4.8 15.99,14.39l0 4.22 -11.77 0 0 -3.26c0,-4.26 -1.26,-6.39 -3.77,-6.39l-0.13 0c-1.41,0 -2.47,0.37 -3.2,1.12 -0.72,0.75 -1.09,1.97 -1.09,3.68l0 25.13c0,2.9 1.32,4.35 3.96,4.35l0.32 0c2.47,0 3.82,-1.64 4.03,-4.92l0.13 -2.11zm44.96 14.77l-27.56 0 0 -49.88 26.67 0 0 9.91 -15.03 0 0 9.27 14.64 0 0 9.91 -14.64 0 0 10.81 15.92 0 0 9.98zm3.58 -11l0 -5.56 10.74 0 0 3.9c0,3.28 1.41,4.92 4.22,4.92l0.51 0c2.64,0 3.96,-1.68 3.96,-5.05 0,-2.17 -2.11,-4.6 -6.33,-7.29 -4.86,-3.11 -7.89,-5.29 -9.08,-6.52 -1.41,-1.49 -2.33,-3.14 -2.78,-4.96 -0.45,-1.81 -0.67,-3.98 -0.67,-6.49 0.9,-8.61 5.65,-12.92 14.26,-12.92l0.64 0c2.52,0 4.82,0.49 6.91,1.47 5.12,2.39 7.67,6.93 7.67,13.62l0 1.02 -10.81 0 0 -0.9c0,-4.18 -1.39,-6.27 -4.16,-6.27 -2.22,0 -3.45,1.26 -3.71,3.77l0 0.58c0,1.45 0.49,2.6 1.47,3.45 0.43,0.34 1.29,0.93 2.59,1.76 1.3,0.83 2.71,1.76 4.22,2.78 1.51,1.02 2.97,2.04 4.38,3.04 1.41,1 2.43,1.84 3.07,2.53 1.19,1.24 1.99,2.71 2.4,4.41 0.4,1.71 0.61,3.56 0.61,5.56 0,4.99 -1.19,8.68 -3.58,11.06 -2.81,2.86 -6.71,4.28 -11.7,4.28 -4.05,0 -7.46,-1 -10.23,-3 -3.07,-2.22 -4.6,-5.29 -4.6,-9.21z"/>
  </g>
 </g>
</svg>
