<?xml version="1.0" encoding="iso-8859-1"?>
<!-- Generator: Adobe Illustrator 19.0.0, SVG Export Plug-In . SVG Version: 6.00 Build 0)  -->
<svg version="1.1" id="Capa_1" xmlns="http://www.w3.org/2000/svg" xmlns:xlink="http://www.w3.org/1999/xlink" x="0px" y="0px"
	 viewBox="0 0 496.485 496.485" style="enable-background:new 0 0 496.485 496.485;" xml:space="preserve">
<circle style="fill:#FDBF5E;" cx="248.242" cy="248.242" r="248.242"/>
<path style="fill:#FFFFFF;" d="M370.812,38.788h-256c-18.618,0-33.358,14.739-33.358,33.358v350.642
	c0,18.618,14.739,33.358,33.358,33.358h256.776c18.618,0,33.358-14.739,33.358-33.358V72.921
	C404.945,54.303,389.43,38.788,370.812,38.788z"/>
<path style="fill:#193651;" d="M370.812,31.03h-256c-22.497,0-41.115,18.618-41.115,41.115v350.642
	c0,22.497,18.618,41.115,41.115,41.115h256.776c22.497,0,41.115-18.618,41.115-41.115V72.921
	C412.703,49.648,394.085,31.03,370.812,31.03z M397.188,423.564c0,13.964-11.636,25.6-25.6,25.6H114.812
	c-13.964,0-25.6-11.636-25.6-25.6V72.921c0-13.964,11.636-25.6,25.6-25.6h256.776c13.964,0,25.6,11.636,25.6,25.6L397.188,423.564
	L397.188,423.564z"/>
<rect x="113.261" y="73.697" style="fill:#2EA2DB;" width="259.103" height="76.8"/>
<g>
	<rect x="113.261" y="382.448" style="fill:#E1E6E9;" width="42.667" height="40.339"/>
	<rect x="185.406" y="382.448" style="fill:#E1E6E9;" width="42.667" height="40.339"/>
	<rect x="257.552" y="382.448" style="fill:#E1E6E9;" width="42.667" height="40.339"/>
	<rect x="113.261" y="315.733" style="fill:#E1E6E9;" width="42.667" height="40.339"/>
	<rect x="185.406" y="315.733" style="fill:#E1E6E9;" width="42.667" height="40.339"/>
	<rect x="257.552" y="315.733" style="fill:#E1E6E9;" width="42.667" height="40.339"/>
</g>
<rect x="329.697" y="315.733" style="fill:#F16051;" width="42.667" height="107.83"/>
<g>
	<rect x="113.261" y="248.242" style="fill:#E1E6E9;" width="42.667" height="40.339"/>
	<rect x="185.406" y="248.242" style="fill:#E1E6E9;" width="42.667" height="40.339"/>
	<rect x="257.552" y="248.242" style="fill:#E1E6E9;" width="42.667" height="40.339"/>
	<rect x="329.697" y="248.242" style="fill:#E1E6E9;" width="42.667" height="40.339"/>
</g>
<rect x="113.261" y="180.752" style="fill:#F16051;" width="42.667" height="40.339"/>
<rect x="185.406" y="180.752" style="fill:#4FBF9F;" width="42.667" height="40.339"/>
<g>
	<rect x="257.552" y="180.752" style="fill:#E1E6E9;" width="42.667" height="40.339"/>
	<rect x="329.697" y="180.752" style="fill:#E1E6E9;" width="42.667" height="40.339"/>
</g>
<g>
	<rect x="200.145" y="105.503" style="fill:#193651;" width="15.515" height="13.188"/>
	<rect x="235.055" y="105.503" style="fill:#193651;" width="15.515" height="13.188"/>
	<rect x="269.964" y="105.503" style="fill:#193651;" width="15.515" height="13.188"/>
</g>
<g>
</g>
<g>
</g>
<g>
</g>
<g>
</g>
<g>
</g>
<g>
</g>
<g>
</g>
<g>
</g>
<g>
</g>
<g>
</g>
<g>
</g>
<g>
</g>
<g>
</g>
<g>
</g>
<g>
</g>
</svg>
