<svg height="512" viewBox="0 0 512 512" width="512" xmlns="http://www.w3.org/2000/svg" xmlns:xlink="http://www.w3.org/1999/xlink"><linearGradient id="New_Gradient_Swatch_12" gradientUnits="userSpaceOnUse" x1="213.281" x2="385.346" y1="429.281" y2="257.216"><stop offset=".011" stop-color="#80d1cb"/><stop offset="1" stop-color="#bfe8e5"/></linearGradient><linearGradient id="New_Gradient_Swatch_13" gradientUnits="userSpaceOnUse" x1="130.342" x2="362.103" y1="381.658" y2="149.897"><stop offset="0" stop-color="#d46669"/><stop offset="1" stop-color="#dd888a"/></linearGradient><linearGradient id="New_Gradient_Swatch_4" gradientUnits="userSpaceOnUse" x1="186.816" x2="352.359" y1="325.184" y2="159.641"><stop offset=".011" stop-color="#cacad5"/><stop offset="1" stop-color="#ededf1"/></linearGradient><linearGradient id="New_Gradient_Swatch_14" gradientTransform="matrix(1 0 0 -1 272 -5632)" gradientUnits="userSpaceOnUse" x1="-108.377" x2="60.377" y1="-6024.877" y2="-5856.123"><stop offset=".015" stop-color="#a6a6b9"/><stop offset="1" stop-color="#cacad5"/></linearGradient><linearGradient id="New_Gradient_Swatch_12-2" x1="48.25" x2="319.75" xlink:href="#New_Gradient_Swatch_12" y1="496.25" y2="224.75"/><linearGradient id="New_Gradient_Swatch_14-2" gradientTransform="matrix(1 0 0 -1 48 -5632)" x1="-82.909" x2="148" xlink:href="#New_Gradient_Swatch_14" y1="-6266.909" y2="-6036"/><g id="_22-invoice" data-name="22-invoice"><g id="linear_color" data-name="linear color"><path d="m208 360a32 32 0 0 1 -32 32h208a32 32 0 0 0 32-32v-72.13h-208z" fill="url(#New_Gradient_Swatch_12)"/><circle cx="328" cy="184" fill="url(#New_Gradient_Swatch_13)" r="168"/><circle cx="328" cy="184" fill="url(#New_Gradient_Swatch_4)" r="120"/><path d="m176 392a32 32 0 0 1 -32-32v-103a32 32 0 0 0 -32-32h208a32 32 0 0 1 32 32v103a32 32 0 0 0 32 32z" fill="url(#New_Gradient_Swatch_14)"/><path d="m112 225a32 32 0 0 0 -32 32v207a32 32 0 0 1 -32 32h208a32 32 0 0 0 32-32v-207a32 32 0 0 1 32-32z" fill="url(#New_Gradient_Swatch_12-2)"/><path d="m224 464v-32h-208v32a32 32 0 0 0 32 32h208a32 32 0 0 1 -32-32z" fill="url(#New_Gradient_Swatch_14-2)"/><path d="m328 4c-99.252 0-180 80.748-180 180a181.452 181.452 0 0 0 2.345 29h-38.345a44.049 44.049 0 0 0 -44 44v163h-52a12 12 0 0 0 -12 12v32a44.049 44.049 0 0 0 44 44h208a44.049 44.049 0 0 0 44-44v-60h84a44.049 44.049 0 0 0 44-44v-26.336a180.007 180.007 0 0 0 80-149.664c0-99.252-80.748-180-180-180zm-280 480a20.023 20.023 0 0 1 -20-20v-20h184v20a43.745 43.745 0 0 0 4.813 20zm228-20a20 20 0 0 1 -40 0v-32a12 12 0 0 0 -12-12h-132v-163a20.023 20.023 0 0 1 20-20h168.813a43.745 43.745 0 0 0 -4.813 20zm-55.317-268h19.317a12 12 0 0 0 0-24h-19.33a108.2 108.2 0 0 1 95.33-95.33v19.33a12 12 0 0 0 24 0v-19.33a108.2 108.2 0 0 1 95.33 95.33h-19.33a12 12 0 0 0 0 24h19.3a108.452 108.452 0 0 1 -71.3 89.843v-28.843a44.049 44.049 0 0 0 -44-44h-96.044a107.229 107.229 0 0 1 -3.273-17zm79.317 184v-123a20 20 0 0 1 40 0v103a43.745 43.745 0 0 0 4.813 20zm104-20a19.992 19.992 0 0 1 -39.981.372 179.1 179.1 0 0 0 39.981-13.189zm-40-24.189v-24.791a132.431 132.431 0 0 0 96-127.02c0-72.785-59.215-132-132-132s-132 59.215-132 132a132.229 132.229 0 0 0 3.2 29h-24.5a157.21 157.21 0 0 1 -2.7-29c0-86.019 69.981-156 156-156s156 69.981 156 156c0 72.437-50.7 135.389-120 151.811z"/><path d="m335.9 192.074 48.5-47.5a12 12 0 0 0 -16.8-17.147l-40.017 39.191-23.1-23.1a12 12 0 0 0 -16.97 16.97l31.5 31.5a12 12 0 0 0 16.882.088z"/><path d="m190.2 315h-17a12 12 0 0 1 0-24h24.811a3.507 3.507 0 0 1 3.5 3.658 12 12 0 1 0 23.978 1.031 27.507 27.507 0 0 0 -27.482-28.689h-3.807v-4a12 12 0 0 0 -24 0v4.135a35.995 35.995 0 0 0 3 71.865h17a12.013 12.013 0 0 1 12 12v1a12.013 12.013 0 0 1 -12 12h-25.21a3.509 3.509 0 0 1 -3.507-3.573l.019-1.038a12 12 0 0 0 -11.784-12.213h-.218a12 12 0 0 0 -12 11.783l-.019 1.035a27.507 27.507 0 0 0 27.505 28.006h5.21v4a12 12 0 0 0 24 0v-4.228a36.047 36.047 0 0 0 32.004-35.772v-1a36.041 36.041 0 0 0 -36-36z"/></g></g></svg>